<?xml version="1.0" encoding="utf-8"?>
<!-- Generator: Adobe Illustrator 19.0.0, SVG Export Plug-In . SVG Version: 6.00 Build 0)  -->
<svg version="1.1" id="Layer_1" xmlns="http://www.w3.org/2000/svg" xmlns:xlink="http://www.w3.org/1999/xlink" x="0px" y="0px"
	 viewBox="-194 356.7 221.2 81.3" style="enable-background:new -194 356.7 221.2 81.3;" xml:space="preserve">
<style type="text/css">
	.st0{fill:#05B26F;}
	.st1{fill:#009357;}
	.st2{fill:#BABABA;}
	.st3{fill:#1A1A3A;}
	.st4{fill:#FFFFFF;}
	.st5{fill:#B0AFB0;}
	.st6{fill:#06B26F;}
</style>
<text id="XMLID_112_" transform="matrix(1 0 0 1 170.5274 1131.0295)" style="fill:#272862; font-family:'Audiowide-Regular'; font-size:79.8132px;">UNISIS</text>
<text id="XMLID_111_" transform="matrix(1 0 0 1 179.0118 1152.7161)" style="fill:#8C8C8C; font-family:'Quicksand-Medium'; font-size:14.6324px; letter-spacing:6;">GROUP OF COMPANIES</text>
<g id="XMLID_108_">
	<path id="XMLID_110_" class="st0" d="M25.9,1155.1c0,0-20,13.3-41-7.5c0,0-11-8-8.9-33.6l0.1-53.6c0,0,34.4,3.4,35.6,36.3
		l-0.1,34.9C11.6,1131.5,12.6,1148.1,25.9,1155.1z"/>
	<path id="XMLID_109_" class="st0" d="M-17.7,1158.6c0,0,23.8,26.7,59.5,11.4c0,0,24.7-8.2,24.2-39l0.1-67c0,0,31.8,2.1,35.3,33.2
		l-0.1,29.5l-0.5,15.7c0,0,0.1,5.7-3.5,13.6c-6.6,14.6-21,36.5-56.2,37C41.2,1193.1,3.5,1196.9-17.7,1158.6z"/>
</g>
<path id="XMLID_107_" class="st1" d="M-17.5,1158.9c0,0,36,44.7,76.3,16.9c0,0,27-16.1,24.2-55.1l0.1-51.1c0,0,17.6,7.3,18.2,30.1
	l-0.4,42.8c0,0-2.9,26.1-24.7,40.2c0,0-26.8,21.6-66.8,3.3C9.4,1186-7.9,1177.4-17.5,1158.9z"/>
<path id="XMLID_106_" class="st1" d="M25.2,1156.1c0,0-16.1,11.3-35.8-3.6c0,0-14.9-7.4-13.7-33l0.9-59c0,0,13.6,2.9,17.2,6.3
	l-0.9,57.2C-7.2,1124-10.9,1152.8,25.2,1156.1z"/>
<g id="XMLID_101_">
	<g id="XMLID_144_">
		<g id="XMLID_146_">
			<path id="XMLID_147_" class="st2" d="M44.7,922.5c0,0,20-13.3,41,7.5c0,0,11,8,8.9,33.6l-0.1,53.6c0,0-34.4-3.4-35.6-36.3L59,946
				C59,946.1,58,929.5,44.7,922.5z"/>
		</g>
		<path id="XMLID_145_" class="st2" d="M138.3,1059c0,0-23.8-26.7-59.5-11.4c0,0-24.7,8.2-24.2,39l-0.1,67c0,0-31.8-2.1-35.3-33.2
			l0.1-29.5l0.5-15.7c0,0-0.1-5.7,3.5-13.6c6.6-14.6,21-36.5,56.2-37C79.4,1024.5,117.1,1020.7,138.3,1059z"/>
	</g>
</g>
<path id="XMLID_100_" class="st3" d="M138.1,1058.7c0,0-36-44.7-76.3-16.9c0,0-27,16.1-24.2,55.1l-0.1,51.1c0,0-17.6-7.3-18.2-30.1
	l0.4-42.8c0,0,2.9-26.1,24.7-40.2c0,0,26.8-21.6,66.8-3.3C111.2,1031.6,128.6,1040.2,138.1,1058.7z"/>
<path id="XMLID_49_" class="st3" d="M94.8,1062.6c0,0,15.9-11.5,35.9,3.1c0,0,15,7.2,14.2,32.8l-0.1,59c0,0-13.7-2.7-17.3-6
	l0.1-57.2C127.6,1094.2,131,1065.4,94.8,1062.6z"/>
<g id="XMLID_87_">
	<path id="XMLID_88_" class="st4" d="M-80.2,403.6c0,0.3-0.1,0.6-0.2,0.9c-0.1,0.3-0.3,0.5-0.5,0.7s-0.4,0.4-0.7,0.5
		c-0.3,0.1-0.6,0.2-0.9,0.2h-9.9c-0.9,0-1.9-0.1-2.8-0.3c-1-0.2-1.9-0.5-2.8-0.9s-1.7-1-2.5-1.6c-0.8-0.7-1.5-1.4-2.1-2.3
		s-1.1-1.9-1.4-3.1c-0.3-1.2-0.5-2.4-0.5-3.9v-12.2h4.5v12.1c0,1.2,0.2,2.3,0.5,3.1c0.3,0.9,0.8,1.6,1.3,2.1c0.5,0.6,1.1,1,1.7,1.4
		s1.2,0.6,1.8,0.7c0.6,0.2,1.1,0.3,1.5,0.3s0.7,0.1,0.9,0.1h7.7v-19.8h4.4V403.6z"/>
	<path id="XMLID_90_" class="st4" d="M-50.8,404c0,0.3-0.1,0.6-0.2,0.9c-0.1,0.3-0.3,0.5-0.5,0.7c-0.2,0.2-0.4,0.4-0.7,0.5
		s-0.6,0.2-0.9,0.2c-0.3,0-0.5-0.1-0.8-0.2s-0.5-0.3-0.7-0.5l-16.1-16.8v17.1H-75v-22.4c0-0.5,0.1-0.9,0.4-1.2
		c0.3-0.3,0.6-0.6,1-0.8c0.4-0.2,0.8-0.2,1.3-0.1c0.5,0.1,0.8,0.3,1.1,0.6l16,16.7v-17.1h4.4V404z"/>
	<path id="XMLID_92_" class="st4" d="M-41.3,405.9h-4.4v-24.3h4.4V405.9z"/>
	<path id="XMLID_94_" class="st4" d="M-12.9,398.7c0,0.9-0.1,1.6-0.3,2.3c-0.2,0.7-0.5,1.3-0.9,1.8s-0.8,1-1.3,1.4s-1,0.7-1.5,0.9
		c-0.5,0.2-1,0.4-1.6,0.5s-1,0.2-1.5,0.2h-17v-4.4h17c0.8,0,1.5-0.2,2-0.7s0.7-1.2,0.7-2c0-0.4-0.1-0.8-0.2-1.1
		c-0.1-0.3-0.3-0.6-0.5-0.9c-0.2-0.2-0.5-0.4-0.8-0.6c-0.3-0.1-0.7-0.2-1.1-0.2H-30c-0.7,0-1.5-0.1-2.3-0.4
		c-0.8-0.3-1.6-0.7-2.3-1.2s-1.3-1.3-1.8-2.2s-0.7-2-0.7-3.3c0-1.3,0.2-2.4,0.7-3.3c0.5-0.9,1.1-1.6,1.8-2.2s1.5-1,2.3-1.2
		c0.8-0.3,1.6-0.4,2.3-0.4h15v4.4h-15c-0.8,0-1.5,0.3-2,0.8s-0.7,1.2-0.7,2c0,0.8,0.2,1.5,0.7,2s1.1,0.7,2,0.7h10.1l0,0
		c0.5,0,1,0.1,1.5,0.2s1.1,0.3,1.6,0.5c0.5,0.2,1,0.6,1.5,0.9c0.5,0.4,0.9,0.8,1.3,1.4s0.7,1.1,0.9,1.8
		C-13,397.1-12.9,397.9-12.9,398.7z"/>
	<path id="XMLID_96_" class="st4" d="M-4.8,405.9h-4.4v-24.3h4.4V405.9z"/>
	<path id="XMLID_98_" class="st4" d="M23.6,398.7c0,0.9-0.1,1.6-0.3,2.3c-0.2,0.7-0.5,1.3-0.9,1.8s-0.8,1-1.3,1.4s-1,0.7-1.5,0.9
		c-0.5,0.2-1,0.4-1.6,0.5s-1,0.2-1.5,0.2h-17v-4.4h17c0.8,0,1.5-0.2,2-0.7s0.7-1.2,0.7-2c0-0.4-0.1-0.8-0.2-1.1
		c-0.1-0.3-0.3-0.6-0.5-0.9c-0.2-0.2-0.5-0.4-0.8-0.6c-0.3-0.1-0.7-0.2-1.1-0.2H6.5c-0.7,0-1.5-0.1-2.3-0.4
		c-0.8-0.3-1.6-0.7-2.3-1.2s-1.3-1.3-1.8-2.2s-0.7-2-0.7-3.3c0-1.3,0.2-2.4,0.7-3.3c0.5-0.9,1.1-1.6,1.8-2.2s1.5-1,2.3-1.2
		c0.8-0.3,1.6-0.4,2.3-0.4h15v4.4h-15c-0.8,0-1.5,0.3-2,0.8s-0.7,1.2-0.7,2c0,0.8,0.2,1.5,0.7,2s1.1,0.7,2,0.7h10.1l0,0
		c0.5,0,1,0.1,1.5,0.2s1.1,0.3,1.6,0.5c0.5,0.2,1,0.6,1.5,0.9c0.5,0.4,0.9,0.8,1.3,1.4s0.7,1.1,0.9,1.8
		C23.5,397.1,23.6,397.9,23.6,398.7z"/>
</g>
<g id="XMLID_34_">
	<path id="XMLID_35_" class="st5" d="M-98.8,413c0.1,0.1,0.1,0.1,0.1,0.2v1.5c0,0.1-0.1,0.2-0.2,0.3c-0.2,0.1-0.4,0.2-0.6,0.3
		s-0.5,0.1-0.7,0.1c-0.4,0-0.8-0.1-1.2-0.3c-0.4-0.2-0.6-0.5-0.8-0.8c-0.2-0.3-0.3-0.7-0.3-1.2s0.1-0.8,0.3-1.2
		c0.2-0.3,0.5-0.6,0.8-0.8c0.4-0.2,0.7-0.3,1.2-0.3c0.2,0,0.4,0,0.6,0.1c0.2,0,0.4,0.1,0.5,0.2c0.1,0,0.1,0.1,0.1,0.1v0.1
		c0,0.1,0,0.2-0.1,0.2s-0.1,0.1-0.2,0.1s-0.1,0-0.2,0c-0.3-0.1-0.6-0.2-0.8-0.2c-0.3,0-0.6,0.1-0.8,0.2c-0.3,0.1-0.5,0.4-0.6,0.6
		c-0.1,0.2-0.2,0.5-0.2,0.9s0.1,0.6,0.2,0.8c0.1,0.2,0.3,0.5,0.6,0.6c0.3,0.2,0.5,0.2,0.8,0.2c0.1,0,0.3,0,0.5-0.1
		c0.2,0,0.3-0.1,0.4-0.1v-1h-0.8c-0.1,0-0.2,0-0.2-0.1c-0.1-0.1-0.1-0.1-0.1-0.2s0-0.2,0.1-0.2c0.1-0.1,0.1-0.1,0.2-0.1h1.2
		C-98.9,412.9-98.8,412.9-98.8,413z"/>
	<path id="XMLID_37_" class="st5" d="M-91.2,414.9L-91.2,414.9c0,0.2,0,0.3-0.1,0.3s-0.1,0.1-0.2,0.1s-0.1,0-0.2-0.1
		s-0.2-0.2-0.3-0.3c-0.1-0.2-0.1-0.4-0.1-0.7c0-0.2-0.1-0.4-0.2-0.5s-0.3-0.2-0.5-0.2H-94v1.4c0,0.1,0,0.2-0.1,0.2
		c-0.1,0.1-0.1,0.1-0.2,0.1s-0.2,0-0.3-0.1s-0.1-0.1-0.1-0.2v-3.8c0-0.1,0-0.2,0.1-0.2c0.1-0.1,0.1-0.1,0.2-0.1h1.8
		c0.2,0,0.4,0.1,0.6,0.2c0.2,0.1,0.3,0.3,0.5,0.5c0.2,0.2,0.2,0.4,0.2,0.7c0,0.2-0.1,0.5-0.2,0.7c-0.1,0.2-0.3,0.4-0.5,0.5
		c0.2,0.1,0.3,0.2,0.4,0.3s0.1,0.3,0.1,0.5s0,0.4,0.1,0.5c0,0.1,0.1,0.1,0.1,0.2C-91.2,414.8-91.2,414.8-91.2,414.9z M-92.3,412.9
		c0.1-0.1,0.2-0.2,0.2-0.3s0.1-0.3,0.1-0.4c0-0.2-0.1-0.4-0.2-0.5s-0.3-0.2-0.5-0.2H-94v1.6h1.4C-92.5,413-92.4,412.9-92.3,412.9z"
		/>
	<path id="XMLID_53_" class="st5" d="M-83.5,414.2c-0.2,0.3-0.4,0.6-0.8,0.8c-0.3,0.2-0.7,0.3-1.1,0.3s-0.8-0.1-1.1-0.3
		c-0.3-0.2-0.6-0.5-0.8-0.8s-0.3-0.7-0.3-1.2c0-0.4,0.1-0.8,0.3-1.2c0.2-0.3,0.4-0.6,0.8-0.8c0.4-0.2,0.7-0.3,1.1-0.3
		s0.8,0.1,1.1,0.3c0.3,0.2,0.6,0.5,0.8,0.8c0.2,0.3,0.3,0.7,0.3,1.2S-83.3,413.8-83.5,414.2z M-84,412.2c-0.1-0.3-0.3-0.5-0.5-0.6
		s-0.5-0.2-0.8-0.2s-0.5,0.1-0.8,0.2c-0.2,0.1-0.4,0.3-0.5,0.6s-0.2,0.5-0.2,0.9c0,0.3,0.1,0.6,0.2,0.9c0.1,0.3,0.3,0.5,0.5,0.6
		s0.5,0.2,0.8,0.2s0.5-0.1,0.8-0.2c0.2-0.1,0.4-0.3,0.5-0.6c0.1-0.3,0.2-0.5,0.2-0.9S-83.9,412.4-84,412.2z"/>
	<path id="XMLID_56_" class="st5" d="M-75.9,410.9c0.1,0.1,0.1,0.1,0.1,0.2v2.4c0,0.3-0.1,0.6-0.2,0.9c-0.1,0.3-0.4,0.5-0.6,0.6
		c-0.3,0.2-0.6,0.2-0.9,0.2s-0.6-0.1-0.9-0.2c-0.3-0.1-0.5-0.4-0.6-0.6c-0.1-0.3-0.2-0.6-0.2-0.9v-2.4c0-0.1,0-0.2,0.1-0.2
		c0.1-0.1,0.1-0.1,0.2-0.1s0.2,0,0.2,0.1c0.1,0.1,0.1,0.1,0.1,0.2v2.4c0,0.2,0.1,0.4,0.2,0.6c0.1,0.2,0.2,0.3,0.4,0.4
		c0.2,0.1,0.4,0.1,0.5,0.1c0.2,0,0.4,0,0.6-0.1c0.2-0.1,0.3-0.2,0.4-0.4c0.1-0.2,0.2-0.4,0.2-0.6v-2.4c0-0.1,0-0.2,0.1-0.2
		c0.1-0.1,0.1-0.1,0.2-0.1S-75.9,410.8-75.9,410.9z"/>
	<path id="XMLID_58_" class="st5" d="M-69.2,411c0.2,0.1,0.3,0.3,0.5,0.5c0.1,0.2,0.2,0.4,0.2,0.7s-0.1,0.5-0.2,0.7
		c-0.1,0.2-0.3,0.4-0.5,0.5c-0.2,0.1-0.4,0.2-0.6,0.2H-71v1.4c0,0.1,0,0.2-0.1,0.2c-0.1,0.1-0.1,0.1-0.2,0.1s-0.2,0-0.2-0.1
		c-0.1-0.1-0.1-0.1-0.1-0.2v-3.8c0-0.1,0-0.2,0.1-0.2c0.1-0.1,0.1-0.1,0.2-0.1h1.5C-69.6,410.8-69.4,410.9-69.2,411z M-69.5,412.9
		c0.1-0.1,0.2-0.2,0.2-0.3s0.1-0.3,0.1-0.4c0-0.2-0.1-0.4-0.2-0.5c-0.1-0.2-0.3-0.2-0.4-0.2H-71v1.6h1.2
		C-69.7,413-69.6,412.9-69.5,412.9z"/>
	<path id="XMLID_61_" class="st5" d="M-55.9,414.2c-0.2,0.3-0.4,0.6-0.8,0.8c-0.3,0.2-0.7,0.3-1.1,0.3c-0.4,0-0.8-0.1-1.1-0.3
		c-0.3-0.2-0.6-0.5-0.8-0.8s-0.3-0.7-0.3-1.2c0-0.4,0.1-0.8,0.3-1.2c0.2-0.3,0.4-0.6,0.8-0.8c0.4-0.2,0.7-0.3,1.1-0.3
		c0.4,0,0.8,0.1,1.1,0.3c0.3,0.2,0.6,0.5,0.8,0.8c0.2,0.3,0.3,0.7,0.3,1.2C-55.6,413.5-55.7,413.8-55.9,414.2z M-56.5,412.2
		c-0.1-0.3-0.3-0.5-0.5-0.6s-0.5-0.2-0.8-0.2s-0.5,0.1-0.8,0.2c-0.2,0.1-0.4,0.3-0.5,0.6s-0.2,0.5-0.2,0.9c0,0.3,0.1,0.6,0.2,0.9
		c0.1,0.3,0.3,0.5,0.5,0.6s0.5,0.2,0.8,0.2s0.5-0.1,0.8-0.2c0.2-0.1,0.4-0.3,0.5-0.6c0.1-0.3,0.2-0.5,0.2-0.9
		S-56.3,412.4-56.5,412.2z"/>
	<path id="XMLID_64_" class="st5" d="M-51,411.4v1.3h1.6c0.1,0,0.2,0,0.2,0.1c0.1,0.1,0.1,0.1,0.1,0.2c0,0.1,0,0.1-0.1,0.2
		s-0.1,0.1-0.2,0.1H-51v1.7c0,0.1,0,0.2-0.1,0.2s-0.1,0.1-0.2,0.1c-0.1,0-0.2,0-0.2-0.1c-0.1-0.1-0.1-0.1-0.1-0.2v-3.8
		c0-0.1,0-0.2,0.1-0.2c0.1-0.1,0.1-0.1,0.2-0.1h2.2c0.1,0,0.2,0,0.2,0.1c0.1,0.1,0.1,0.1,0.1,0.2s0,0.1-0.1,0.2
		c-0.1,0.1-0.1,0.1-0.2,0.1L-51,411.4L-51,411.4z"/>
	<path id="XMLID_66_" class="st5" d="M-36.6,411.3c0,0.1,0,0.1-0.1,0.2c-0.1,0.1-0.1,0.1-0.2,0.1c-0.1,0-0.1,0-0.2,0
		c-0.3-0.1-0.5-0.2-0.9-0.2c-0.3,0-0.6,0.1-0.8,0.2s-0.4,0.3-0.6,0.6c-0.1,0.3-0.2,0.5-0.2,0.9s0.1,0.7,0.2,0.9
		c0.1,0.2,0.3,0.4,0.6,0.6c0.2,0.1,0.5,0.2,0.8,0.2s0.6-0.1,0.9-0.2c0.1,0,0.1,0,0.2,0c0.1,0,0.2,0,0.2,0.1c0.1,0.1,0.1,0.1,0.1,0.2
		c0,0.1,0,0.1,0,0.1l-0.1,0.1c-0.2,0.1-0.3,0.2-0.6,0.2c-0.2,0.1-0.4,0.1-0.6,0.1c-0.4,0-0.8-0.1-1.1-0.3s-0.6-0.4-0.8-0.8
		c-0.2-0.3-0.3-0.8-0.3-1.2s0.1-0.8,0.3-1.2c0.2-0.3,0.5-0.6,0.8-0.8s0.7-0.3,1.2-0.3c0.4,0,0.8,0.1,1.2,0.3
		C-36.7,411.1-36.6,411.2-36.6,411.3z"/>
	<path id="XMLID_68_" class="st5" d="M-29,414.2c-0.2,0.3-0.4,0.6-0.8,0.8c-0.3,0.2-0.7,0.3-1.1,0.3c-0.4,0-0.8-0.1-1.1-0.3
		c-0.3-0.2-0.6-0.5-0.8-0.8s-0.3-0.7-0.3-1.2c0-0.4,0.1-0.8,0.3-1.2c0.2-0.3,0.4-0.6,0.8-0.8c0.4-0.2,0.7-0.3,1.1-0.3
		c0.4,0,0.8,0.1,1.1,0.3c0.3,0.2,0.6,0.5,0.8,0.8c0.2,0.3,0.3,0.7,0.3,1.2S-28.8,413.8-29,414.2z M-29.5,412.2
		c-0.1-0.3-0.3-0.5-0.5-0.6s-0.5-0.2-0.8-0.2s-0.5,0.1-0.8,0.2c-0.2,0.1-0.4,0.3-0.5,0.6s-0.2,0.5-0.2,0.9c0,0.3,0.1,0.6,0.2,0.9
		c0.1,0.3,0.3,0.5,0.5,0.6s0.5,0.2,0.8,0.2s0.5-0.1,0.8-0.2c0.2-0.1,0.4-0.3,0.5-0.6c0.1-0.3,0.2-0.5,0.2-0.9
		S-29.4,412.4-29.5,412.2z"/>
	<path id="XMLID_71_" class="st5" d="M-20.7,410.9c0.1,0.1,0.1,0.1,0.1,0.2v3.8c0,0.1,0,0.2-0.1,0.2c-0.1,0.1-0.1,0.1-0.2,0.1
		c-0.1,0-0.2,0-0.2-0.1c-0.1-0.1-0.1-0.1-0.1-0.2V412l-1.2,1.9l-0.1,0.1h-0.1h-0.1l-0.1-0.1L-24,412v3c0,0.1,0,0.2-0.1,0.2
		c-0.1,0.1-0.1,0.1-0.2,0.1c-0.1,0-0.2,0-0.2-0.1c-0.1-0.1-0.1-0.1-0.1-0.2v-3.8c0-0.1,0-0.2,0.1-0.2c0.1-0.1,0.1-0.1,0.2-0.1
		c0.1,0,0.1,0,0.1,0l0.1,0.1l1.5,2.3l1.5-2.3c0.1-0.1,0.2-0.1,0.3-0.1C-20.8,410.8-20.7,410.8-20.7,410.9z"/>
	<path id="XMLID_73_" class="st5" d="M-13.9,411c0.2,0.1,0.3,0.3,0.5,0.5c0.1,0.2,0.2,0.4,0.2,0.7s-0.1,0.5-0.2,0.7
		c-0.1,0.2-0.3,0.4-0.5,0.5c-0.2,0.1-0.4,0.2-0.6,0.2h-1.2v1.4c0,0.1,0,0.2-0.1,0.2c-0.1,0.1-0.1,0.1-0.2,0.1c-0.1,0-0.2,0-0.2-0.1
		c-0.1-0.1-0.1-0.1-0.1-0.2v-3.8c0-0.1,0-0.2,0.1-0.2c0.1-0.1,0.1-0.1,0.2-0.1h1.5C-14.3,410.8-14.1,410.9-13.9,411z M-14.3,412.9
		c0.1-0.1,0.2-0.2,0.2-0.3c0.1-0.1,0.1-0.3,0.1-0.4c0-0.2-0.1-0.4-0.2-0.5s-0.3-0.2-0.4-0.2h-1.2v1.6h1.2
		C-14.5,413-14.3,412.9-14.3,412.9z"/>
	<path id="XMLID_76_" class="st5" d="M-6.2,415c0,0.1,0,0.2-0.1,0.2s-0.1,0.1-0.2,0.1c-0.1,0-0.1,0-0.2-0.1l-0.1-0.1l-0.4-0.9h-2
		l-0.4,0.9c0,0.1-0.1,0.1-0.1,0.1s-0.1,0-0.2,0c-0.1,0-0.2,0-0.2-0.1c0,0-0.1-0.1-0.1-0.2v-0.1l1.6-3.9c0-0.1,0.1-0.1,0.1-0.2
		c0.1,0,0.1,0,0.2,0c0.1,0,0.1,0,0.2,0.1s0.1,0.1,0.1,0.1l1.6,3.9C-6.2,414.9-6.2,414.9-6.2,415z M-8.9,413.6h1.5l-0.7-1.8
		L-8.9,413.6z"/>
	<path id="XMLID_79_" class="st5" d="M1.1,410.9c0.1,0.1,0.1,0.1,0.1,0.2v3.9c0,0.1,0,0.2-0.1,0.2c-0.1,0.1-0.1,0.1-0.2,0.1H0.8
		c0,0-0.1,0-0.1-0.1l-2.5-3.2v3.1c0,0.1,0,0.1-0.1,0.2s-0.1,0.1-0.2,0.1c-0.1,0-0.1,0-0.2-0.1s-0.1-0.1-0.1-0.2v-3.9
		c0-0.1,0-0.2,0.1-0.2c0.1-0.1,0.1-0.1,0.2-0.1c0.1,0,0.1,0,0.1,0s0.1,0,0.1,0.1l2.5,3.3v-3.1c0-0.1,0-0.1,0.1-0.2
		c0.1-0.1,0.1-0.1,0.2-0.1C1,410.8,1.1,410.8,1.1,410.9z"/>
	<path id="XMLID_81_" class="st5" d="M6,415.2c-0.1,0.1-0.1,0.1-0.2,0.1c-0.1,0-0.2,0-0.2-0.1c-0.1-0.1-0.1-0.1-0.1-0.2v-3.8
		c0-0.1,0-0.2,0.1-0.2c0.1-0.1,0.1-0.1,0.2-0.1c0.1,0,0.2,0,0.2,0.1c0.1,0.1,0.1,0.1,0.1,0.2v3.8C6.1,415,6,415.1,6,415.2z"/>
	<path id="XMLID_83_" class="st5" d="M13,414.8c0.1,0.1,0.1,0.1,0.1,0.2c0,0.1,0,0.2-0.1,0.2c-0.1,0.1-0.1,0.1-0.2,0.1h-2.2
		c-0.1,0-0.2,0-0.2-0.1c-0.1-0.1-0.1-0.1-0.1-0.2v-3.8c0-0.1,0-0.2,0.1-0.2c0.1-0.1,0.1-0.1,0.2-0.1h2.2c0.1,0,0.2,0,0.2,0.1
		c0.1,0.1,0.1,0.1,0.1,0.2s0,0.2-0.1,0.2c-0.1,0.1-0.1,0.1-0.2,0.1h-1.9v1.2h1.6c0.1,0,0.2,0,0.2,0.1c0.1,0.1,0.1,0.1,0.1,0.2
		c0,0.1,0,0.2-0.1,0.2c-0.1,0.1-0.1,0.1-0.2,0.1h-1.6v1.4h1.9C12.9,414.7,13,414.7,13,414.8z"/>
	<path id="XMLID_85_" class="st5" d="M17.6,415.2c-0.2-0.1-0.5-0.2-0.7-0.4c-0.1-0.1-0.1-0.2-0.1-0.3c0-0.1,0-0.1,0.1-0.2
		s0.1-0.1,0.2-0.1c0.1,0,0.1,0,0.2,0.1c0.2,0.2,0.3,0.3,0.5,0.3c0.2,0.1,0.4,0.1,0.6,0.1c0.3,0,0.5-0.1,0.7-0.2
		c0.2-0.1,0.3-0.3,0.3-0.5c0-0.2-0.1-0.4-0.3-0.5c-0.2-0.1-0.5-0.2-0.8-0.3c-0.4-0.1-0.8-0.2-1-0.4c-0.2-0.2-0.4-0.5-0.4-0.8
		c0-0.3,0.1-0.5,0.2-0.7c0.1-0.2,0.3-0.3,0.5-0.4s0.5-0.2,0.8-0.2s0.5,0,0.7,0.1c0.2,0.1,0.4,0.2,0.6,0.3c0.1,0.1,0.1,0.2,0.1,0.3
		s0,0.1-0.1,0.2s-0.1,0.1-0.2,0.1c-0.1,0-0.1,0-0.1-0.1c-0.1-0.1-0.3-0.2-0.5-0.3c-0.2-0.1-0.4-0.1-0.6-0.1c-0.3,0-0.5,0.1-0.7,0.2
		s-0.3,0.3-0.3,0.5c0,0.2,0.1,0.4,0.3,0.5c0.2,0.1,0.4,0.2,0.7,0.3c0.3,0.1,0.6,0.2,0.8,0.3s0.4,0.2,0.5,0.4
		c0.1,0.2,0.2,0.4,0.2,0.7c0,0.2-0.1,0.5-0.2,0.7c-0.1,0.2-0.3,0.3-0.6,0.4c-0.2,0.1-0.5,0.2-0.8,0.2
		C18.1,415.3,17.9,415.3,17.6,415.2z"/>
</g>
<g id="XMLID_45_">
	<path id="XMLID_47_" class="st6" d="M-169.2,417.4c0,0-8.7,5.8-17.8-3.3c0,0-4.8-3.5-3.9-14.6l0.1-23.3c0,0,14.9,1.5,15.4,15.7V407
		C-175.4,407.1-174.9,414.4-169.2,417.4z"/>
	<path id="XMLID_46_" class="st6" d="M-188.1,418.9c0,0,10.3,11.6,25.8,5c0,0,10.7-3.5,10.5-16.9l0.1-29c0,0,13.8,0.9,15.3,14.4
		v12.8l-0.2,6.8c0,0,0,2.5-1.5,5.9c-2.9,6.3-9.1,15.8-24.4,16C-162.5,433.9-178.9,435.5-188.1,418.9z"/>
</g>
<path id="XMLID_44_" class="st1" d="M-188,419c0,0,15.6,19.4,33.1,7.3c0,0,11.7-7,10.5-23.9v-22.1c0,0,7.6,3.2,7.9,13.1l-0.2,18.6
	c0,0-1.3,11.3-10.7,17.4c0,0-11.6,9.4-29,1.4C-176.3,430.8-183.8,427-188,419z"/>
<path id="XMLID_43_" class="st1" d="M-169.5,417.8c0,0-7,4.9-15.5-1.6c0,0-6.5-3.2-6-14.3l0.4-25.6c0,0,5.9,1.3,7.4,2.7l-0.4,24.8
	C-183.5,403.9-185.1,416.4-169.5,417.8z"/>
<g id="XMLID_31_">
	<g id="XMLID_38_">
		<g id="XMLID_42_">
			<path id="XMLID_50_" class="st2" d="M-139.3,377.2c0,0,8.7-5.8,17.8,3.3c0,0,4.8,3.5,3.9,14.6l-0.1,23.3c0,0-14.9-1.5-15.4-15.7
				v-15.1C-133.1,387.5-133.6,380.2-139.3,377.2z"/>
		</g>
		<path id="XMLID_41_" class="st2" d="M-120.4,375.7c0,0-10.3-11.6-25.8-5c0,0-10.7,3.5-10.5,16.9l-0.1,29c0,0-13.8-0.9-15.3-14.4
			v-12.8l0.2-6.8c0,0,0-2.5,1.5-5.9c2.9-6.3,9.2-15.8,24.4-16C-146,360.7-129.6,359.1-120.4,375.7z"/>
	</g>
</g>
<path id="XMLID_30_" class="st3" d="M-120.5,375.6c0,0-15.6-19.4-33.1-7.3c0,0-11.7,7-10.5,23.9v22.1c0,0-7.6-3.2-7.9-13.1l0.1-18.5
	c0,0,1.3-11.3,10.7-17.4c0,0,11.6-9.4,29-1.4C-132.2,363.8-124.7,367.5-120.5,375.6z"/>
<path id="XMLID_29_" class="st3" d="M-139.3,377.3c0,0,6.9-5,15.6,1.3c0,0,6.5,3.1,6.2,14.2l-0.1,25.6c0,0-5.9-1.2-7.5-2.6l0.1-24.8
	C-125.1,391-123.6,378.5-139.3,377.3z"/>
</svg>
